<svg xmlns="http://www.w3.org/2000/svg" width="1024" height="1024" viewBox="0 0 1024 1024">
  
  <rect x="296.96" y="163.84" width="56.32" height="542.72" rx="28.16" fill="#FF8C00"/>
  <ellipse cx="266.24" cy="706.56" rx="107.52" ry="76.8" fill="#FF8C00"/>
  <rect x="296.96" y="163.84" width="266.24" height="56.32" rx="28.16" fill="#FF8C00"/>
  <rect x="506.88" y="163.84" width="56.32" height="389.12" rx="28.16" fill="#FF8C00"/>
  <path d="M563.2,542.72 L581.22,606.62 L645.12,624.64 L581.22,642.66 L563.2,706.56 L545.1800000000001,642.66 L481.28000000000003,624.64 L545.1800000000001,606.62 Z" fill="#FF8C00"/>
  <path d="M563.2,573.4399999999999 L574.46,613.38 L614.4000000000001,624.64 L574.46,635.9 L563.2,675.84 L551.94,635.9 L512.0,624.64 L551.94,613.38 Z" fill="#FFFFFF"/>
  <circle cx="696.32" cy="215.04" r="25.6" fill="#FF8C00" opacity="0.45"/>
  <circle cx="747.52" cy="286.72" r="15.36" fill="#FF8C00" opacity="0.25"/>
  <circle cx="727.04" cy="153.6" r="12.8" fill="#FF8C00" opacity="0.20"/>
</svg>